<svg id="Layer_1" data-name="Layer 1" xmlns="http://www.w3.org/2000/svg" viewBox="0 0 286.34 569"><defs><style>.cls-1{fill:#eb5a26;}.cls-2{fill:#982221;}</style></defs><title>ballball</title><rect class="cls-1" x="-4.83" y="-31.3" width="303.85" height="664.56"/><path class="cls-2" d="M286.34,558.56H200.28c2.27-17.94,11.06-33.07,23.19-46.79s25.82-26.55,33.18-43.69c8.58-20,7.34-43.22,1-63.68-12.05-38.62-47.47-66.07-54.44-106.53A86.69,86.69,0,0,1,201.92,285h84.43a5.24,5.24,0,0,0,0-10.44h-84a83.9,83.9,0,0,1,14.8-39.49c10.49-15,24.52-27.38,33.93-43.23,22.49-37.87,7-82.22-15.74-115.85-11.13-16.47-23.66-32.55-29.52-51.83A99.25,99.25,0,0,1,202.18.31c-3.39-.24-11-0.13-11-0.13,0.62,19,6.67,37.71,16.48,54.08,10,16.67,22.54,31.72,31.41,49.08,9.86,19.3,15.46,43.07,10.2,64.51-4.52,18.4-17.41,32.14-29.37,46.14C207.7,228.25,197,243.62,193,262.26a95.61,95.61,0,0,0-1.78,12.3H148.17V0.16l-10-.16V274.56h-45a90.63,90.63,0,0,0-13.37-41.41c-9.55-15.3-23.11-27.44-33.34-42.2C34.1,173.13,31,153,35.08,131.81c4-20.48,14.36-38.07,26-55C72,60.86,83.37,45,89.1,26.32A108.87,108.87,0,0,0,93.49,0H82.34c-1,17.89-7.31,35.33-17,50.84C54.77,67.74,42,83.25,33.56,101.42c-9.17,19.75-13.88,42.61-9.93,64.27,7.09,38.8,47.52,58.54,56.63,96.4a80.78,80.78,0,0,1,2,12.47H0a4.75,4.75,0,0,0-4.82,5.22A4.75,4.75,0,0,0,0,285H82.43a98.09,98.09,0,0,1-11.91,42c-9.37,17.42-22.17,32.7-32,49.87-10.66,18.71-17.33,39.79-16.87,61.5,0.42,20.06,8.53,37.19,21.18,52.39,11.81,14.2,26,26.51,34.4,43.28a72,72,0,0,1,7,24.57H0a4.75,4.75,0,0,0-4.82,5.22A4.75,4.75,0,0,0,0,569H286.34A5.24,5.24,0,0,0,286.34,558.56Zm-148.17,0H95.27c0-.34,0-0.68-0.09-1-2.12-19.86-11.13-36.59-23.94-51.6-11.57-13.56-25.48-25.66-33-42.17C29.15,443.84,32,419.92,39.58,400c7.26-19.1,20-35.3,31.17-52.2S90.53,313.16,92.8,293q0.45-4,.58-8h44.79V558.56Zm51,0h-41V285H191a105,105,0,0,0,9,39.57c8,18.06,20.51,33.5,31,50.06,11.78,18.5,20.12,38.62,20.65,60.83,0.49,20.35-7.85,37-21,52-11.94,13.66-25.5,26.26-33.54,42.81A85.73,85.73,0,0,0,189.2,558.56Z"/></svg>